<svg width="298" height="61" viewBox="0 0 298 61" fill="none" xmlns="http://www.w3.org/2000/svg">
<path d="M168.314 31.668H158.135C157.473 31.668 156.977 31.7492 156.977 32.3992V38.493C156.977 39.143 157.473 39.6305 158.135 39.6305H168.396C169.058 39.6305 169.555 40.118 169.555 40.768V41.0117C169.555 41.6617 169.058 42.1492 168.396 42.1492H154.908C154.246 42.1492 153.75 41.6617 153.75 41.418V20.2117C153.75 19.1555 154.246 18.668 154.908 18.668H168.231C168.893 18.668 169.389 19.1555 169.389 19.8055V19.968C169.389 20.618 168.893 21.1055 168.231 21.1055H158.135C157.473 21.1055 156.977 21.593 156.977 22.243V27.9305C156.977 28.5805 157.473 29.068 158.135 29.068H168.314C168.976 29.068 169.472 29.5555 169.472 30.2055V30.368C169.472 31.0992 168.976 31.668 168.314 31.668Z" fill="#77CC00"/>
<path d="M174.437 41.0117V19.8055C174.437 19.1555 174.934 18.668 175.596 18.668H181.719C184.864 18.668 187.346 19.643 189.249 21.5117C191.153 23.3805 192.063 25.818 192.063 28.8242V32.0742C192.063 35.0805 191.153 37.518 189.249 39.3867C187.346 41.2555 184.864 42.2305 181.719 42.2305H175.596C174.934 42.1492 174.437 41.6617 174.437 41.0117ZM177.664 22.3242V38.493C177.664 39.143 178.161 39.6305 178.823 39.6305H181.719C183.953 39.6305 185.691 38.8992 186.932 37.518C188.174 36.0555 188.836 34.268 188.836 31.993V28.743C188.836 26.5492 188.174 24.6805 186.932 23.2992C185.691 21.8367 183.871 21.1867 181.719 21.1867H178.823C178.244 21.1055 177.664 21.6742 177.664 22.3242Z" fill="#77CC00"/>
<path d="M209.44 36.1367H201.083C200.586 36.1367 200.172 36.4617 199.924 36.868L198.269 41.418C198.104 41.9055 197.69 42.1492 197.111 42.1492H196.366C195.538 42.1492 194.959 41.3367 195.29 40.5242L203.648 19.318C203.813 18.8305 204.227 18.5867 204.724 18.5867H205.882C206.379 18.5867 206.792 18.9117 206.958 19.318L215.15 40.5242C215.481 41.2555 214.902 42.1492 214.074 42.1492H213.33C212.833 42.1492 212.419 41.8242 212.171 41.3367L210.516 36.7867C210.351 36.3805 209.937 36.1367 209.44 36.1367ZM202.903 33.4555H207.537C208.365 33.4555 208.944 32.643 208.696 31.9117L205.303 22.8117H205.22L201.827 31.9117C201.496 32.643 202.076 33.4555 202.903 33.4555Z" fill="#77CC00"/>
<path d="M223.425 18.668C223.922 18.668 224.335 18.993 224.501 19.3992L231.866 37.7617H231.948L239.313 19.3992C239.479 18.9117 239.892 18.668 240.389 18.668H242.54C243.202 18.668 243.699 19.1555 243.699 19.8055V41.0117C243.699 41.6617 243.202 42.1492 242.54 42.1492H241.713C241.051 42.1492 240.554 41.6617 240.554 41.0117V32.8867L240.885 23.2992H240.803L233.355 41.418C233.19 41.8242 232.776 42.1492 232.279 42.1492H231.7C231.204 42.1492 230.79 41.8242 230.624 41.418L223.177 23.2992H223.094L223.425 32.8055V40.9305C223.425 41.5805 222.929 42.068 222.267 42.068H221.439C220.777 42.068 220.281 41.5805 220.281 40.9305V19.8055C220.281 19.1555 220.777 18.668 221.439 18.668H223.425Z" fill="#77CC00"/>
<path d="M263.145 36.1367H254.787C254.291 36.1367 253.877 36.4617 253.629 36.868L251.974 41.418C251.808 41.9055 251.395 42.1492 250.815 42.1492H250.071C249.243 42.1492 248.664 41.3367 248.995 40.5242L257.353 19.318C257.518 18.8305 257.932 18.5867 258.428 18.5867H259.587C260.083 18.5867 260.497 18.9117 260.663 19.318L268.855 40.5242C269.186 41.2555 268.607 42.1492 267.779 42.1492H267.034C266.538 42.1492 266.124 41.8242 265.876 41.3367L264.221 36.7867C264.138 36.3805 263.642 36.1367 263.145 36.1367ZM256.691 33.4555H261.325C262.152 33.4555 262.731 32.643 262.483 31.9117L259.09 22.8117H259.008L255.615 31.9117C255.284 32.643 255.863 33.4555 256.691 33.4555Z" fill="#77CC00"/>
<path d="M277.13 18.668C277.626 18.668 278.04 18.993 278.206 19.3992L285.57 37.7617H285.653L293.018 19.3992C293.183 18.9117 293.597 18.668 294.094 18.668H296.245C296.907 18.668 297.403 19.1555 297.403 19.8055V41.0117C297.403 41.6617 296.907 42.1492 296.245 42.1492H295.418C294.756 42.1492 294.259 41.6617 294.259 41.0117V32.8867L294.59 23.2992H294.507L287.06 41.418C286.894 41.8242 286.481 42.1492 285.984 42.1492H285.405C284.908 42.1492 284.495 41.8242 284.329 41.418L276.882 23.2992H276.799L277.13 32.8055V40.9305C277.13 41.5805 276.633 42.068 275.971 42.068H275.144C274.482 42.068 273.985 41.5805 273.985 40.9305V19.8055C273.985 19.1555 274.482 18.668 275.144 18.668H277.13Z" fill="#77CC00"/>
<path d="M142.72 39.2551C147.722 27.398 141.988 13.8045 129.912 8.89299C117.836 3.98152 103.991 9.61204 98.9893 21.4691C93.9871 33.3262 99.7216 46.9198 111.798 51.8312C123.874 56.7427 137.718 51.1122 142.72 39.2551Z" fill="#77CC00"/>
<path d="M130.083 21.1055H111.63C111.051 21.1055 110.554 20.618 110.554 20.0492V19.5617C110.554 18.993 111.051 18.5055 111.63 18.5055H130.083C130.662 18.5055 131.159 18.993 131.159 19.5617V20.0492C131.159 20.6992 130.662 21.1055 130.083 21.1055Z" fill="#F4F7FA"/>
<path d="M130.083 31.668H111.63C111.051 31.668 110.554 31.1805 110.554 30.6117V30.2055C110.554 29.6367 111.051 29.1492 111.63 29.1492H130.083C130.662 29.1492 131.159 29.6367 131.159 30.2055V30.6117C131.159 31.1805 130.662 31.668 130.083 31.668Z" fill="#F4F7FA"/>
<path d="M130.083 42.1492H111.63C111.051 42.1492 110.554 41.6617 110.554 41.093V40.6055C110.554 40.0367 111.051 39.5492 111.63 39.5492H130.083C130.662 39.5492 131.159 40.0367 131.159 40.6055V41.093C131.159 41.743 130.662 42.1492 130.083 42.1492Z" fill="#F4F7FA"/>
<path opacity="0.7" d="M117.008 26.3867H111.713C111.133 26.3867 110.637 25.8992 110.637 25.3305V24.9242C110.637 24.3555 111.133 23.868 111.713 23.868H117.008C117.588 23.868 118.084 24.3555 118.084 24.9242V25.3305C118.084 25.8992 117.588 26.3867 117.008 26.3867Z" fill="#F4F7FA"/>
<path opacity="0.7" d="M117.174 36.9492H111.795C111.216 36.9492 110.72 36.4617 110.72 35.893V35.4055C110.72 34.8367 111.216 34.3492 111.795 34.3492H117.174C117.753 34.3492 118.25 34.8367 118.25 35.4055V35.893C118.167 36.4617 117.753 36.9492 117.174 36.9492Z" fill="#F4F7FA"/>
<path d="M1.655 38.0867V41.4992H0V32.2367H3.641C4.71675 32.2367 5.54425 32.4805 6.1235 33.0492C6.70275 33.618 7.03375 34.268 7.03375 35.1617C7.03375 36.0555 6.70275 36.7867 6.1235 37.2742C5.54425 37.7617 4.634 38.0055 3.55825 38.0055H1.655V38.0867ZM1.655 36.7867H3.641C4.22025 36.7867 4.634 36.6242 4.965 36.3805C5.296 36.1367 5.4615 35.7305 5.4615 35.243C5.4615 34.7555 5.296 34.3492 4.965 34.0242C4.634 33.6992 4.22025 33.5367 3.72375 33.5367H1.73775V36.7867H1.655Z" fill="#929497"/>
<path d="M16.9637 37.1117C16.9637 38.0055 16.7982 38.818 16.4672 39.468C16.1362 40.118 15.7225 40.6867 15.0605 41.0117C14.4812 41.418 13.8192 41.5805 12.9917 41.5805C12.247 41.5805 11.585 41.418 10.923 41.0117C10.3437 40.6055 9.84724 40.118 9.51624 39.468C9.18524 38.818 9.01974 38.0055 9.01974 37.1117V36.6242C9.01974 35.7305 9.18524 34.918 9.51624 34.268C9.84724 33.618 10.261 33.0492 10.923 32.7242C11.5022 32.318 12.1642 32.1555 12.9917 32.1555C13.7365 32.1555 14.3985 32.318 15.0605 32.7242C15.6397 33.0492 16.1362 33.618 16.4672 34.268C16.7982 34.918 16.9637 35.7305 16.9637 36.6242V37.1117ZM15.3087 36.6242C15.3087 35.568 15.1432 34.8367 14.7295 34.268C14.3157 33.6992 13.7365 33.4555 13.0745 33.4555C12.3297 33.4555 11.8332 33.6992 11.4195 34.268C11.0057 34.8367 10.8402 35.568 10.8402 36.543V37.1117C10.8402 38.0867 11.0057 38.8992 11.4195 39.468C11.8332 40.0367 12.4125 40.2805 13.0745 40.2805C13.8192 40.2805 14.3157 40.0367 14.7295 39.468C15.1432 38.8992 15.3087 38.168 15.3087 37.1117V36.6242Z" fill="#929497"/>
<path d="M26.9765 39.2242L28.466 32.2367H30.121L27.9695 41.4992H26.3972L24.5767 34.7555L22.7562 41.4992H21.1012L18.9497 32.2367H20.6047L22.0942 39.143L23.9147 32.2367H25.3215L26.9765 39.2242Z" fill="#929497"/>
<path d="M37.734 37.3555H33.8447V40.1992H38.396V41.4992H32.2725V32.2367H38.396V33.5367H33.9275V36.1367H37.8167V37.3555H37.734Z" fill="#929497"/>
<path d="M44.1885 37.9242H42.368V41.4992H40.713V32.2367H44.023C45.0988 32.2367 45.9263 32.4805 46.5055 32.968C47.0848 33.4555 47.4158 34.1055 47.4158 35.0805C47.4158 35.7305 47.2503 36.218 46.9193 36.6242C46.5883 37.0305 46.1745 37.3555 45.678 37.5992L47.8295 41.418V41.4992H46.0918L44.1885 37.9242ZM42.368 36.6242H44.023C44.6023 36.6242 45.016 36.4617 45.347 36.218C45.678 35.9742 45.8435 35.568 45.8435 35.0805C45.8435 34.593 45.678 34.1867 45.4298 33.943C45.1815 33.6992 44.685 33.5367 44.1058 33.5367H42.368V36.6242Z" fill="#929497"/>
<path d="M55.4425 37.3555H51.5533V40.1992H56.1045V41.4992H49.981V32.2367H56.1045V33.5367H51.636V36.1367H55.5253V37.3555H55.4425Z" fill="#929497"/>
<path d="M58.4215 41.4992V32.2367H61.235C62.0625 32.2367 62.8073 32.3992 63.4693 32.8055C64.1313 33.1305 64.6278 33.6992 64.9588 34.3492C65.2898 34.9992 65.4553 35.8117 65.4553 36.6242V37.1117C65.4553 38.0055 65.2898 38.7367 64.9588 39.3867C64.6278 40.0367 64.1313 40.5242 63.4693 40.9305C62.8073 41.2555 62.0625 41.4992 61.235 41.4992H58.4215ZM60.0765 33.5367V40.1992H61.1523C61.9798 40.1992 62.6418 39.9555 63.1383 39.3867C63.6348 38.818 63.8003 38.0867 63.8003 37.1117V36.6242C63.8003 35.6492 63.552 34.8367 63.1383 34.3492C62.7245 33.7805 62.0625 33.5367 61.235 33.5367H60.0765Z" fill="#929497"/>
<path d="M72.3235 41.4992V32.2367H75.5507C76.6265 32.2367 77.454 32.4805 77.9505 32.8867C78.447 33.293 78.778 33.943 78.778 34.7555C78.778 35.1617 78.6952 35.568 78.447 35.893C78.1987 36.218 77.8677 36.4617 77.454 36.7055C77.9505 36.868 78.3642 37.1117 78.6125 37.4367C78.8607 37.7617 79.0262 38.2492 79.0262 38.818C79.0262 39.7117 78.778 40.3617 78.1987 40.8492C77.6195 41.3367 76.792 41.5805 75.799 41.5805H72.3235V41.4992ZM73.9785 36.1367H75.5507C76.0472 36.1367 76.461 36.0555 76.7092 35.8117C76.9575 35.568 77.123 35.243 77.123 34.8367C77.123 34.3492 76.9575 34.0242 76.7092 33.8617C76.461 33.6992 76.0472 33.5367 75.468 33.5367H73.8957V36.1367H73.9785ZM73.9785 37.3555V40.1992H75.799C76.2955 40.1992 76.7092 40.0367 77.0402 39.793C77.2885 39.5492 77.454 39.2242 77.454 38.7367C77.454 37.7617 76.9575 37.2742 75.9645 37.2742H73.9785V37.3555Z" fill="#929497"/>
<path d="M84.405 36.6242L86.5565 32.2367H88.377L85.2325 38.0867V41.4992H83.5775V38.0867L80.433 32.2367H82.2535L84.405 36.6242Z" fill="#929497"/>
</svg>
