<svg width="111" height="30" viewBox="0 0 111 30" fill="none" xmlns="http://www.w3.org/2000/svg">
<path d="M5.3633 15.976V18.8389H4V11.0682H6.99925C7.88539 11.0682 8.56704 11.2727 9.0442 11.7498C9.52135 12.227 9.79401 12.7723 9.79401 13.5221C9.79401 14.2719 9.52135 14.8854 9.0442 15.2944C8.56704 15.7034 7.81723 15.9079 6.93109 15.9079H5.3633V15.976ZM5.3633 14.8854H6.99925C7.47641 14.8854 7.81723 14.7491 8.08989 14.5446C8.36255 14.3401 8.49888 13.9992 8.49888 13.5903C8.49888 13.1813 8.36255 12.8404 8.08989 12.5678C7.81723 12.2951 7.4764 12.1588 7.06742 12.1588H5.43146L5.3633 14.8854Z" fill="#929497"/>
<path d="M17.9738 15.1581C17.9738 15.9079 17.8374 16.5895 17.5648 17.1348C17.2921 17.6802 16.9513 18.1573 16.406 18.43C15.9288 18.7708 15.3835 18.9071 14.7019 18.9071C14.0884 18.9071 13.5431 18.7708 12.9977 18.43C12.5206 18.0891 12.1116 17.6802 11.8389 17.1348C11.5663 16.5895 11.43 15.9079 11.43 15.1581V14.7491C11.43 13.9993 11.5663 13.3176 11.8389 12.7723C12.1116 12.227 12.4524 11.7498 12.9977 11.4772C13.4749 11.1363 14.0202 11 14.7019 11C15.3154 11 15.8607 11.1363 16.406 11.4772C16.8831 11.7498 17.2921 12.227 17.5648 12.7723C17.8374 13.3176 17.9738 13.9993 17.9738 14.7491V15.1581ZM16.6105 14.7491C16.6105 13.8629 16.4742 13.2494 16.1333 12.7723C15.7925 12.2951 15.3154 12.0906 14.77 12.0906C14.1566 12.0906 13.7476 12.2951 13.4067 12.7723C13.0659 13.2494 12.9296 13.8629 12.9296 14.6809V15.1581C12.9296 15.976 13.0659 16.6577 13.4067 17.1348C13.7476 17.612 14.2247 17.8165 14.77 17.8165C15.3835 17.8165 15.7925 17.612 16.1333 17.1348C16.4742 16.6577 16.6105 16.0442 16.6105 15.1581V14.7491Z" fill="#929497"/>
<path d="M26.2217 16.9303L27.4487 11.0682H28.812L27.0397 18.8389H25.7446L24.2449 13.1813L22.7453 18.8389H21.382L19.6097 11.0682H20.973L22.2 16.8622L23.6996 11.0682H24.8584L26.2217 16.9303Z" fill="#929497"/>
<path d="M35.0832 15.3625H31.8794V17.7483H35.6285V18.8389H30.5843V11.0682H35.6285V12.1588H31.9476V14.3401H35.1513V15.3625H35.0832Z" fill="#929497"/>
<path d="M40.4 15.8397H38.9004V18.8389H37.5371V11.0682H40.2637C41.1498 11.0682 41.8315 11.2727 42.3086 11.6816C42.7858 12.0906 43.0584 12.636 43.0584 13.4539C43.0584 13.9992 42.9221 14.4082 42.6494 14.7491C42.3768 15.0899 42.036 15.3625 41.627 15.567L43.3993 18.7708V18.8389H41.9678L40.4 15.8397ZM38.9004 14.7491H40.2637C40.7408 14.7491 41.0817 14.6127 41.3543 14.4082C41.627 14.2037 41.7633 13.8629 41.7633 13.4539C41.7633 13.0449 41.627 12.7041 41.4225 12.4996C41.218 12.2951 40.809 12.1588 40.3318 12.1588H38.9004V14.7491Z" fill="#929497"/>
<path d="M49.6705 15.3625H46.4667V17.7483H50.2158V18.8389H45.1716V11.0682H50.2158V12.1588H46.5349V14.3401H49.7386V15.3625H49.6705Z" fill="#929497"/>
<path d="M52.1243 18.8389V11.0682H54.4419C55.1236 11.0682 55.7371 11.2045 56.2824 11.5453C56.8277 11.818 57.2367 12.2951 57.5093 12.8404C57.782 13.3858 57.9183 14.0674 57.9183 14.7491V15.158C57.9183 15.9079 57.782 16.5213 57.5093 17.0667C57.2367 17.612 56.8277 18.021 56.2824 18.3618C55.7371 18.6345 55.1236 18.8389 54.4419 18.8389H52.1243ZM53.4876 12.1588V17.7483H54.3738C55.0554 17.7483 55.6007 17.5438 56.0097 17.0667C56.4187 16.5895 56.555 15.976 56.555 15.158V14.7491C56.555 13.9311 56.3505 13.2494 56.0097 12.8404C55.6689 12.3633 55.1236 12.1588 54.4419 12.1588H53.4876Z" fill="#929497"/>
<path d="M63.576 18.8389V11.0682H66.2345C67.1206 11.0682 67.8023 11.2727 68.2113 11.6135C68.6202 11.9543 68.8929 12.4996 68.8929 13.1813C68.8929 13.5221 68.8247 13.8629 68.6203 14.1356C68.4158 14.4082 68.1431 14.6127 67.8023 14.8172C68.2113 14.9536 68.5521 15.158 68.7566 15.4307C68.9611 15.7034 69.0974 16.1124 69.0974 16.5895C69.0974 17.3393 68.8929 17.8846 68.4158 18.2936C67.9386 18.7026 67.257 18.9071 66.439 18.9071H63.576V18.8389ZM64.9393 14.3401H66.2345C66.6435 14.3401 66.9843 14.2719 67.1888 14.0674C67.3933 13.8629 67.5296 13.5903 67.5296 13.2494C67.5296 12.8404 67.3933 12.5678 67.1888 12.4315C66.9843 12.2951 66.6435 12.1588 66.1663 12.1588H64.8712V14.3401H64.9393ZM64.9393 15.3625V17.7483H66.439C66.848 17.7483 67.1888 17.612 67.4615 17.4075C67.6659 17.203 67.8023 16.9303 67.8023 16.5213C67.8023 15.7034 67.3933 15.2944 66.5753 15.2944L64.9393 15.3625Z" fill="#929497"/>
<path d="M73.5281 14.7491L75.3004 11.0682H76.8L74.2098 15.976V18.8389H72.8465V15.976L70.2562 11.0682H71.7558L73.5281 14.7491Z" fill="#929497"/>
<path d="M94.5 28C101.404 28 107 22.4036 107 15.5C107 8.59644 101.404 3 94.5 3C87.5964 3 82 8.59644 82 15.5C82 22.4036 87.5964 28 94.5 28Z" fill="#77CC00"/>
<path d="M99.3951 10.5175H89.6486C89.3426 10.5175 89.0804 10.2552 89.0804 9.9493V9.68706C89.0804 9.38112 89.3426 9.11888 89.6486 9.11888H99.3951C99.701 9.11888 99.9633 9.38112 99.9633 9.68706V9.9493C99.9633 10.299 99.701 10.5175 99.3951 10.5175Z" fill="#F4F7FA"/>
<path d="M99.3951 16.1993H89.6486C89.3426 16.1993 89.0804 15.9371 89.0804 15.6311V15.4126C89.0804 15.1066 89.3426 14.8444 89.6486 14.8444H99.3951C99.701 14.8444 99.9632 15.1066 99.9632 15.4126V15.6311C99.9632 15.9371 99.701 16.1993 99.3951 16.1993Z" fill="#F4F7FA"/>
<path d="M99.3951 21.8374H89.6486C89.3426 21.8374 89.0804 21.5752 89.0804 21.2692V21.007C89.0804 20.701 89.3426 20.4388 89.6486 20.4388H99.3951C99.701 20.4388 99.9632 20.701 99.9632 21.007V21.2692C99.9632 21.6189 99.701 21.8374 99.3951 21.8374Z" fill="#F4F7FA"/>
<path opacity="0.7" d="M92.4895 13.3584H89.6923C89.3863 13.3584 89.1241 13.0961 89.1241 12.7902V12.5717C89.1241 12.2657 89.3863 12.0035 89.6923 12.0035H92.4895C92.7954 12.0035 93.0577 12.2657 93.0577 12.5717V12.7902C93.0577 13.0961 92.7954 13.3584 92.4895 13.3584Z" fill="#F4F7FA"/>
<path opacity="0.7" d="M92.5769 19.0402H89.736C89.43 19.0402 89.1678 18.778 89.1678 18.472V18.2098C89.1678 17.9038 89.43 17.6416 89.736 17.6416H92.5769C92.8828 17.6416 93.1451 17.9038 93.1451 18.2098V18.472C93.1013 18.778 92.8828 19.0402 92.5769 19.0402Z" fill="#F4F7FA"/>
</svg>
